<svg width="32" height="32" viewBox="0 0 32 32" fill="none" xmlns="http://www.w3.org/2000/svg">
<path d="M19.1914 4C20.7102 4 21.9414 5.23122 21.9414 6.75V8.8457C22.8629 9.28991 23.5 10.2308 23.5 11.3223V13.6689C23.5612 13.6597 23.6237 13.6533 23.6875 13.6533C24.38 13.6533 24.9414 14.2147 24.9414 14.9072V17.7363C24.9414 18.4288 24.38 18.9902 23.6875 18.9902C23.6236 18.9902 23.5613 18.9828 23.5 18.9736V21.3223C23.4998 22.4134 22.8626 23.3527 21.9414 23.7969V25.8936C21.9414 27.4123 20.7102 28.6436 19.1914 28.6436H12.3047C10.7859 28.6436 9.55469 27.4123 9.55469 25.8936V23.7949C8.63566 23.3499 8.00019 22.4118 8 21.3223V11.3223C8 10.2324 8.63532 9.29265 9.55469 8.84766V6.75C9.55469 5.23122 10.7859 4 12.3047 4H19.1914ZM11.0547 25.8936C11.0547 26.5839 11.6143 27.1436 12.3047 27.1436H19.1914C19.8818 27.1436 20.4414 26.5839 20.4414 25.8936V24.0723H11.0547V25.8936ZM10.75 10.0723C10.0596 10.0723 9.5 10.6319 9.5 11.3223V21.3223C9.50026 22.0124 10.0598 22.5723 10.75 22.5723H20.75C21.4402 22.5723 21.9997 22.0124 22 21.3223V11.3223C22 10.6319 21.4404 10.0723 20.75 10.0723H10.75ZM12.3047 5.5C11.6143 5.5 11.0547 6.05964 11.0547 6.75V8.57227H20.4414V6.75C20.4414 6.05964 19.8818 5.5 19.1914 5.5H12.3047Z" fill="#00AD99"/>
</svg>
