<svg width="20" height="21" viewBox="0 0 20 21" fill="none" xmlns="http://www.w3.org/2000/svg">
<g clip-path="url(#clip0_906_2374)">
<path d="M2.66797 20.276H17.3346M10.0013 14.9427V20.276M0.667969 2.94271V13.6094C0.667969 13.963 0.808445 14.3021 1.05849 14.5522C1.30854 14.8022 1.64768 14.9427 2.0013 14.9427H18.0013C18.3549 14.9427 18.6941 14.8022 18.9441 14.5522C19.1942 14.3021 19.3346 13.963 19.3346 13.6094V2.94271C19.3346 2.58909 19.1942 2.24995 18.9441 1.9999C18.6941 1.74985 18.3549 1.60938 18.0013 1.60938H2.0013C1.64768 1.60938 1.30854 1.74985 1.05849 1.9999C0.808445 2.24995 0.667969 2.58909 0.667969 2.94271Z" stroke="#00AD99" stroke-width="1.5"/>
</g>
<defs>
<clipPath id="clip0_906_2374">
<rect width="20" height="20" fill="white" transform="translate(0 0.941406)"/>
</clipPath>
</defs>
</svg>
