<svg width="30" height="30" viewBox="0 0 30 30" fill="none" xmlns="http://www.w3.org/2000/svg">
<path d="M8.67578 6.25125C8.67545 6.91429 8.41174 7.55004 7.94266 8.01865C7.47359 8.48726 6.83757 8.75033 6.17453 8.75C5.51149 8.74967 4.87574 8.48596 4.40713 8.01688C3.93852 7.54781 3.67545 6.91179 3.67578 6.24875C3.67611 5.58571 3.93982 4.94996 4.4089 4.48135C4.87797 4.01274 5.51399 3.74967 6.17703 3.75C6.84007 3.75033 7.47583 4.01404 7.94443 4.48312C8.41304 4.95219 8.67611 5.58821 8.67578 6.25125ZM8.75078 10.6012H3.75078V26.2512H8.75078V10.6012ZM16.6508 10.6012H11.6758V26.2512H16.6008V18.0388C16.6008 13.4638 22.5633 13.0388 22.5633 18.0388V26.2512H27.5008V16.3387C27.5008 8.62625 18.6758 8.91375 16.6008 12.7013L16.6508 10.6012Z" fill="white"/>
</svg>
