<svg width="32" height="32" viewBox="0 0 32 32" fill="none" xmlns="http://www.w3.org/2000/svg">
<rect width="32" height="32" rx="16" fill="#00AD99"/>
<path d="M8.98487 11.197C10.1933 11.197 11.1729 10.2174 11.1729 9.00898C11.1729 7.80058 10.1933 6.82098 8.98487 6.82098C7.77648 6.82098 6.79688 7.80058 6.79688 9.00898C6.79688 10.2174 7.77648 11.197 8.98487 11.197Z" fill="white"/>
<path d="M13.2358 12.855V24.994H17.0047V18.991C17.0047 17.407 17.3027 15.873 19.2667 15.873C21.2037 15.873 21.2277 17.684 21.2277 19.091V24.995H24.9988V18.338C24.9988 15.068 24.2948 12.555 20.4728 12.555C18.6378 12.555 17.4077 13.562 16.9047 14.515H16.8537V12.855H13.2358ZM7.09375 12.855H10.8687V24.994H7.09375V12.855Z" fill="white"/>
</svg>
