<svg width="24" height="24" viewBox="0 0 24 24" fill="none" xmlns="http://www.w3.org/2000/svg">
<path d="M6.75 8.2504C6.75 6.85801 7.30312 5.52265 8.28769 4.53809C9.27226 3.55352 10.6076 3.0004 12 3.0004C13.3924 3.0004 14.7277 3.55352 15.7123 4.53809C16.6969 5.52265 17.25 6.85801 17.25 8.2504C17.25 8.44931 17.329 8.64007 17.4697 8.78073C17.6103 8.92138 17.8011 9.0004 18 9.0004C18.1989 9.0004 18.3897 8.92138 18.5303 8.78073C18.671 8.64007 18.75 8.44931 18.75 8.2504C18.7499 7.09924 18.4554 5.96724 17.8945 4.96199C17.3336 3.95674 16.5249 3.11163 15.5453 2.50701C14.5657 1.90239 13.4478 1.55833 12.2978 1.50755C11.1477 1.45677 10.0038 1.70094 8.97477 2.21687C7.9457 2.7328 7.06568 3.50333 6.41835 4.45523C5.77102 5.40713 5.37789 6.50877 5.27632 7.65543C5.17476 8.80209 5.36813 9.95568 5.83807 11.0065C6.30801 12.0574 7.03889 12.9706 7.96125 13.6594C8.75218 14.2502 9.66309 14.6604 10.6298 14.8609C10.764 15.1621 10.9938 15.4106 11.2836 15.5681C11.5733 15.7255 11.9069 15.7831 12.2327 15.7319C12.5584 15.6807 12.8583 15.5236 13.0857 15.2848C13.3132 15.0461 13.4557 14.739 13.4911 14.4112C13.5265 14.0833 13.4529 13.7529 13.2816 13.4711C13.1104 13.1893 12.851 12.9718 12.5437 12.8522C12.2363 12.7326 11.8982 12.7177 11.5815 12.8096C11.2648 12.9016 10.9872 13.0953 10.7917 13.3609C9.64094 13.0887 8.61573 12.436 7.88217 11.5085C7.14861 10.581 6.74968 9.43295 6.75 8.2504ZM7.5 8.2504C7.50029 7.42254 7.72895 6.61081 8.16081 5.90452C8.59268 5.19823 9.211 4.62476 9.94775 4.24721C10.6845 3.86967 11.5111 3.70267 12.3367 3.76461C13.1622 3.82655 13.9547 4.11501 14.6268 4.59826C15.299 5.08152 15.8248 5.74083 16.1465 6.50365C16.4681 7.26647 16.5731 8.10323 16.4499 8.92186C16.3266 9.7405 15.98 10.5093 15.448 11.1436C14.916 11.7779 14.2194 12.2532 13.4348 12.5171C13.0312 12.1831 12.5238 12.0004 12 12.0004C11.4548 12.0004 10.9552 12.1946 10.5652 12.5171C9.67181 12.2166 8.89531 11.6431 8.34533 10.8775C7.79535 10.112 7.49966 9.19303 7.5 8.2504ZM12 16.5004C12.3601 16.5006 12.7149 16.4144 13.0347 16.249C13.3545 16.0836 13.63 15.8438 13.838 15.5499C14.0459 15.256 14.1803 14.9164 14.2298 14.5598C14.2793 14.2032 14.2425 13.8399 14.1225 13.5004H18.375C19.0712 13.5004 19.7389 13.777 20.2312 14.2692C20.7234 14.7615 21 15.4292 21 16.1254V16.5004C21 18.2951 19.8578 19.8131 18.2363 20.8451C16.6058 21.8831 14.3985 22.5004 12 22.5004C9.6015 22.5004 7.395 21.8831 5.76375 20.8451C4.14225 19.8131 3 18.2951 3 16.5004V16.1254C3 15.4292 3.27656 14.7615 3.76884 14.2692C4.26113 13.777 4.92881 13.5004 5.625 13.5004H6.64425C7.60346 14.4798 8.81277 15.1776 10.1407 15.5179C10.5457 16.1111 11.2282 16.5004 12 16.5004Z" fill="white"/>
</svg>
