<svg width="24" height="24" viewBox="0 0 24 24" fill="none" xmlns="http://www.w3.org/2000/svg">
<g clip-path="url(#clip0_2086_22498)">
<path fill-rule="evenodd" clip-rule="evenodd" d="M13.7143 5.14286C13.7143 6.50683 13.1725 7.81493 12.208 8.77941C11.2435 9.74388 9.9354 10.2857 8.57143 10.2857C7.20746 10.2857 5.89936 9.74388 4.93488 8.77941C3.97041 7.81493 3.42858 6.50683 3.42858 5.14286C3.42858 3.77889 3.97041 2.47078 4.93488 1.50631C5.89936 0.541835 7.20746 0 8.57143 0C9.9354 0 11.2435 0.541835 12.208 1.50631C13.1725 2.47078 13.7143 3.77889 13.7143 5.14286ZM10.3714 21.4286H0.857147C0.629818 21.4286 0.411801 21.3383 0.251055 21.1775C0.0903096 21.0168 3.71751e-06 20.7988 3.71751e-06 20.5714C-0.00188376 18.5439 0.715029 16.5813 2.02337 15.0324C3.33172 13.4835 5.14678 12.4485 7.14609 12.1114C9.1454 11.7742 11.1995 12.1567 12.9435 13.1909C14.6874 14.2251 16.0083 15.844 16.6714 17.76L16.5411 17.9486L15.5109 17.256C14.8998 16.815 14.1604 16.5877 13.4071 16.6091C12.6538 16.6305 11.9286 16.8995 11.3436 17.3745C10.7585 17.8495 10.3462 18.504 10.1705 19.2368C9.9948 19.9696 10.0654 20.7399 10.3714 21.4286ZM23.7429 15.7714C23.9475 15.4986 24.0353 15.1557 23.9871 14.8182C23.9389 14.4806 23.7585 14.176 23.4857 13.9714C23.2129 13.7668 22.87 13.679 22.5325 13.7272C22.1949 13.7754 21.8903 13.9558 21.6857 14.2286L17.1086 20.9143L14.28 19.0114C14.1449 18.9101 13.9912 18.8364 13.8277 18.7945C13.6641 18.7526 13.4939 18.7433 13.3267 18.7672C13.1596 18.7911 12.9988 18.8477 12.8535 18.9337C12.7082 19.0197 12.5813 19.1335 12.48 19.2686C12.3787 19.4036 12.305 19.5574 12.2631 19.7209C12.2212 19.8845 12.2119 20.0547 12.2358 20.2218C12.2597 20.389 12.3162 20.5498 12.4023 20.6951C12.4883 20.8403 12.6021 20.9673 12.7371 21.0686L16.5943 23.7429C16.7294 23.8442 16.8831 23.9179 17.0466 23.9598C17.2102 24.0017 17.3804 24.011 17.5475 23.9871C17.7147 23.9632 17.8755 23.9066 18.0208 23.8206C18.1661 23.7346 18.293 23.6208 18.3943 23.4857L23.7429 15.7714Z" fill="white"/>
</g>
<defs>
<clipPath id="clip0_2086_22498">
<rect width="24" height="24" fill="white"/>
</clipPath>
</defs>
</svg>
