<svg width="24" height="24" viewBox="0 0 24 24" fill="none" xmlns="http://www.w3.org/2000/svg">
<g clip-path="url(#clip0_2086_22484)">
<path d="M11.7087 15.9C11.9739 15.9 12.2283 15.7946 12.4158 15.6071C12.6033 15.4196 12.7087 15.1652 12.7087 14.9C12.7087 14.6348 12.6033 14.3804 12.4158 14.1929C12.2283 14.0054 11.9739 13.9 11.7087 13.9H8.34868C8.29705 13.9014 8.24626 13.8868 8.20328 13.8581C8.1603 13.8295 8.12726 13.7882 8.10868 13.74C7.80904 12.9209 7.59457 12.0731 7.46868 11.21C7.45548 11.1783 7.44868 11.1443 7.44868 11.11C7.44868 11.0757 7.45548 11.0417 7.46868 11.01C7.49192 10.9821 7.52095 10.9596 7.55376 10.9441C7.58657 10.9285 7.62238 10.9203 7.65868 10.92H12.1587C12.4239 10.92 12.6783 10.8146 12.8658 10.6271C13.0533 10.4396 13.1587 10.1852 13.1587 9.92C13.1587 9.65478 13.0533 9.40043 12.8658 9.21289C12.6783 9.02536 12.4239 8.92 12.1587 8.92H7.61868C7.58463 8.92083 7.55081 8.91408 7.51968 8.90024C7.48856 8.88641 7.46089 8.86583 7.43868 8.84C7.41329 8.81577 7.39378 8.78605 7.38165 8.75312C7.36952 8.72018 7.36508 8.68491 7.36868 8.65C7.43681 7.77863 7.61144 6.91889 7.88868 6.09C7.91209 6.05721 7.94405 6.03147 7.98108 6.0156C8.01811 5.99973 8.05879 5.99433 8.09868 6H12.3287C12.3815 5.99934 12.4332 6.01543 12.4763 6.04597C12.5194 6.07652 12.5518 6.11994 12.5687 6.17C12.784 6.82088 12.938 7.49046 13.0287 8.17C13.0626 8.41028 13.1828 8.63001 13.3668 8.78823C13.5508 8.94646 13.786 9.03239 14.0287 9.03H14.1587C14.2959 9.01121 14.4277 8.96414 14.5457 8.89176C14.6638 8.81938 14.7655 8.72326 14.8445 8.60951C14.9234 8.49576 14.9779 8.36685 15.0045 8.23095C15.031 8.09504 15.029 7.9551 14.9987 7.82C14.9269 7.29752 14.8234 6.7799 14.6887 6.27C14.686 6.23635 14.6901 6.2025 14.7008 6.17049C14.7115 6.13848 14.7286 6.10897 14.751 6.08374C14.7734 6.05851 14.8007 6.03808 14.8313 6.02369C14.8618 6.0093 14.8949 6.00124 14.9287 6H16.9287C16.9737 5.99988 17.0178 6.01189 17.0565 6.03477C17.0953 6.05765 17.1271 6.09055 17.1487 6.13C17.4483 6.6424 17.6834 7.18989 17.8487 7.76C17.9209 8.0142 18.0909 8.22946 18.3213 8.35875C18.5518 8.48804 18.8241 8.52085 19.0787 8.45C19.331 8.37564 19.5439 8.20484 19.6712 7.9746C19.7985 7.74437 19.8299 7.47325 19.7587 7.22C19.1709 5.15375 17.9296 3.33352 16.2205 2.03193C14.5115 0.730341 12.4268 0.0174408 10.2787 0C3.27868 0 0.278682 5 0.278682 10C0.235232 11.3113 0.462156 12.6175 0.945328 13.8373C1.4285 15.0571 2.15758 16.1644 3.08718 17.0902C4.01678 18.016 5.12701 18.7406 6.34875 19.2189C7.57048 19.6971 8.87758 19.9188 10.1887 19.87C10.4539 19.87 10.7083 19.7646 10.8958 19.5771C11.0833 19.3896 11.1887 19.1352 11.1887 18.87C11.1838 18.6558 11.1102 18.4488 10.9787 18.2796C10.8473 18.1103 10.665 17.9878 10.4587 17.93C10.432 17.9246 10.4068 17.9139 10.3844 17.8984C10.3621 17.8829 10.3431 17.863 10.3287 17.84C9.9682 17.331 9.63442 16.8036 9.32868 16.26C9.30931 16.2212 9.29923 16.1784 9.29923 16.135C9.29923 16.0916 9.30931 16.0488 9.32868 16.01C9.35227 15.9731 9.38481 15.9427 9.42327 15.9217C9.46173 15.9008 9.50487 15.8898 9.54868 15.89L11.7087 15.9ZM5.99868 13.59C6.01546 13.6242 6.02418 13.6619 6.02418 13.7C6.02418 13.7381 6.01546 13.7758 5.99868 13.81C5.97488 13.8405 5.94458 13.8653 5.90998 13.8826C5.87538 13.8999 5.83736 13.9093 5.79868 13.91H3.53868C3.49494 13.9105 3.45195 13.8986 3.41475 13.8756C3.37756 13.8526 3.3477 13.8194 3.32868 13.78C2.88162 12.9838 2.57068 12.1186 2.40868 11.22C2.40368 11.1843 2.40645 11.148 2.4168 11.1134C2.42716 11.0789 2.44486 11.047 2.46868 11.02C2.49032 10.9903 2.51905 10.9666 2.55224 10.9508C2.58542 10.9351 2.62202 10.928 2.65868 10.93H5.21868C5.27902 10.9298 5.33721 10.9523 5.38169 10.9931C5.42617 11.0339 5.45365 11.0899 5.45868 11.15C5.56763 11.9774 5.74831 12.7939 5.99868 13.59ZM5.39868 8.71C5.39364 8.77278 5.3651 8.83134 5.31875 8.87398C5.2724 8.91663 5.21166 8.9402 5.14868 8.94H2.58868C2.51726 8.93951 2.44894 8.91075 2.39868 8.86C2.37486 8.83296 2.35716 8.80109 2.3468 8.76656C2.33645 8.73204 2.33368 8.69569 2.33868 8.66C2.46178 7.76113 2.74277 6.89108 3.16868 6.09C3.195 6.05792 3.22889 6.03289 3.2673 6.01718C3.30571 6.00147 3.34742 5.99556 3.38868 6H5.52868C5.56594 6.00077 5.60251 6.01021 5.63549 6.02757C5.66847 6.04493 5.69695 6.06972 5.71868 6.1C5.73535 6.13249 5.74405 6.16848 5.74405 6.205C5.74405 6.24152 5.73535 6.27751 5.71868 6.31C5.53124 7.09743 5.42072 7.9012 5.38868 8.71H5.39868ZM5.54868 4C5.49756 3.99859 5.4481 3.98154 5.40697 3.95114C5.36584 3.92074 5.33503 3.87846 5.31868 3.83C5.3005 3.77996 5.29947 3.72529 5.31577 3.6746C5.33206 3.62391 5.36475 3.58008 5.40868 3.55C5.8318 3.2432 6.28396 2.9786 6.75868 2.76C6.80738 2.7393 6.86124 2.73396 6.91306 2.74468C6.96488 2.7554 7.01219 2.78168 7.04868 2.82C7.07749 2.86287 7.09287 2.91335 7.09287 2.965C7.09287 3.01665 7.07749 3.06713 7.04868 3.11C6.90868 3.36333 6.77868 3.61333 6.65868 3.86C6.64092 3.89909 6.61299 3.93271 6.57781 3.95733C6.54263 3.98195 6.50149 3.99669 6.45868 4H5.54868ZM9.30868 4C9.26461 3.99938 9.22148 3.98711 9.18367 3.96445C9.14586 3.94179 9.11472 3.90953 9.0934 3.87095C9.07208 3.83237 9.06134 3.78883 9.06226 3.74476C9.06319 3.70069 9.07576 3.65765 9.09868 3.62C9.37331 3.16323 9.6738 2.72251 9.99868 2.3C10.023 2.27078 10.0536 2.24749 10.0883 2.2319C10.1229 2.2163 10.1607 2.20881 10.1987 2.21C10.235 2.21031 10.2708 2.21851 10.3036 2.23406C10.3364 2.2496 10.3654 2.2721 10.3887 2.3C10.7303 2.70866 11.0443 3.13961 11.3287 3.59C11.3528 3.62723 11.3656 3.67064 11.3656 3.715C11.3656 3.75936 11.3528 3.80277 11.3287 3.84C11.3071 3.87945 11.2753 3.91235 11.2365 3.93523C11.1978 3.95811 11.1537 3.97012 11.1087 3.97L9.30868 4ZM13.4287 3.21C13.3977 3.16612 13.381 3.11372 13.381 3.06C13.381 3.00628 13.3977 2.95388 13.4287 2.91C13.4704 2.87837 13.5213 2.86125 13.5737 2.86125C13.626 2.86125 13.677 2.87837 13.7187 2.91C14.1138 3.10838 14.4917 3.33917 14.8487 3.6C14.8907 3.63148 14.9217 3.67537 14.9373 3.72546C14.953 3.77554 14.9524 3.82928 14.9359 3.87906C14.9193 3.92883 14.8874 3.97213 14.8449 4.00281C14.8023 4.03349 14.7512 4.05 14.6987 4.05H13.9987C13.9524 4.05035 13.907 4.03732 13.868 4.01249C13.829 3.98765 13.798 3.95206 13.7787 3.91C13.6687 3.61 13.5487 3.4 13.4287 3.18V3.21ZM7.36868 16.86C7.40031 16.9017 7.41744 16.9526 7.41744 17.005C7.41744 17.0574 7.40031 17.1083 7.36868 17.15C7.33567 17.1902 7.29001 17.218 7.23916 17.2289C7.18831 17.2398 7.13526 17.2331 7.08868 17.21C6.56722 16.9809 6.07395 16.6923 5.61868 16.35C5.57475 16.3199 5.54206 16.2761 5.52577 16.2254C5.50947 16.1747 5.5105 16.12 5.52868 16.07C5.54559 16.0199 5.57792 15.9765 5.62104 15.946C5.66416 15.9154 5.71585 15.8993 5.76868 15.9H6.76868C6.81494 15.8996 6.86032 15.9127 6.89935 15.9375C6.93839 15.9624 6.96941 15.9979 6.98868 16.04C7.07868 16.31 7.21868 16.59 7.36868 16.86Z" fill="white"/>
<path d="M20.4935 18.3396C20.4585 18.3158 20.4298 18.2837 20.4099 18.2462C20.3901 18.2088 20.3797 18.167 20.3797 18.1246C20.3797 18.0822 20.3901 18.0404 20.4099 18.003C20.4298 17.9655 20.4585 17.9334 20.4935 17.9096C21.2593 17.37 21.8334 16.6007 22.1326 15.7129C22.4318 14.8252 22.4405 13.8653 22.1575 12.9723C21.8745 12.0793 21.3145 11.2996 20.5586 10.7462C19.8028 10.1928 18.8903 9.89453 17.9535 9.89453C17.0168 9.89453 16.1043 10.1928 15.3485 10.7462C14.5926 11.2996 14.0326 12.0793 13.7496 12.9723C13.4666 13.8653 13.4753 14.8252 13.7745 15.7129C14.0737 16.6007 14.6477 17.37 15.4135 17.9096C15.4508 17.9317 15.4817 17.9632 15.5032 18.0009C15.5247 18.0386 15.536 18.0812 15.536 18.1246C15.536 18.168 15.5247 18.2106 15.5032 18.2483C15.4817 18.286 15.4508 18.3175 15.4135 18.3396C14.4691 18.8207 13.676 19.5535 13.1219 20.457C12.5678 21.3606 12.2742 22.3997 12.2735 23.4596C12.2722 23.5248 12.2839 23.5896 12.3079 23.6502C12.332 23.7108 12.3678 23.766 12.4135 23.8126C12.4591 23.8591 12.5136 23.8961 12.5737 23.9214C12.6338 23.9466 12.6983 23.9596 12.7635 23.9596H23.2235C23.3561 23.9596 23.4833 23.9069 23.5771 23.8132C23.6709 23.7194 23.7235 23.5922 23.7235 23.4596C23.7134 22.3905 23.4059 21.3453 22.8354 20.4411C22.2649 19.5368 21.4541 18.8092 20.4935 18.3396ZM17.4335 21.8596V20.3696C17.4335 20.1733 17.5115 19.9851 17.6503 19.8463C17.7891 19.7076 17.9773 19.6296 18.1735 19.6296C18.3707 19.6296 18.56 19.7072 18.7004 19.8457C18.8407 19.9842 18.9209 20.1724 18.9235 20.3696V21.8596C18.9209 22.0577 18.8411 22.247 18.701 22.3871C18.5609 22.5272 18.3716 22.607 18.1735 22.6096C17.9764 22.607 17.7882 22.5268 17.6497 22.3864C17.5112 22.2461 17.4335 22.0568 17.4335 21.8596ZM15.6035 13.5696C15.6177 13.5344 15.6393 13.5028 15.6669 13.4769C15.6946 13.451 15.7276 13.4314 15.7635 13.4196C15.7966 13.405 15.8324 13.3975 15.8685 13.3975C15.9047 13.3975 15.9405 13.405 15.9735 13.4196C16.8871 14.0047 17.9487 14.3169 19.0335 14.3196C19.4165 14.3161 19.7982 14.2759 20.1735 14.1996C20.1892 14.1924 20.2063 14.1887 20.2235 14.1887C20.2408 14.1887 20.2579 14.1924 20.2735 14.1996C20.2883 14.2119 20.3004 14.2272 20.309 14.2444C20.3176 14.2616 20.3225 14.2804 20.3235 14.2996C20.2839 14.9158 20.0112 15.4939 19.5608 15.9163C19.1104 16.3387 18.516 16.5738 17.8985 16.5738C17.281 16.5738 16.6867 16.3387 16.2363 15.9163C15.7858 15.4939 15.5131 14.9158 15.4735 14.2996C15.4818 14.0513 15.5256 13.8055 15.6035 13.5696Z" fill="white"/>
</g>
<defs>
<clipPath id="clip0_2086_22484">
<rect width="24" height="24" fill="white"/>
</clipPath>
</defs>
</svg>
