<svg width="24" height="24" viewBox="0 0 24 24" fill="none" xmlns="http://www.w3.org/2000/svg">
<path d="M4.0135 2.9675C3.3705 3.625 3.3705 4.375 4.0135 5.0325C4.392 5.4195 4.9765 5.8025 5.7575 6.14C7.317 6.815 9.5235 7.25 12.0005 7.25C14.4775 7.25 16.684 6.8145 18.2435 6.14C19.0245 5.8025 19.6085 5.4195 19.9875 5.0325C20.6305 4.375 20.6305 3.625 19.9875 2.9675C19.609 2.5805 19.0245 2.1975 18.2435 1.86C16.684 1.185 14.4775 0.75 12.0005 0.75C9.5235 0.75 7.317 1.1855 5.7575 1.86C4.9765 2.1975 4.3925 2.5805 4.0135 2.9675Z" fill="white"/>
<path fill-rule="evenodd" clip-rule="evenodd" d="M2.00231 4.00006L2.00381 3.97656V3.99956C2.00381 4.80306 2.38381 5.50756 2.94431 6.08106C3.50231 6.65106 4.27231 7.13006 5.16531 7.51606C6.95381 8.28956 9.37181 8.74956 12.0038 8.74956C14.6358 8.74956 17.0538 8.28956 18.8423 7.51656C19.7353 7.13006 20.5053 6.65156 21.0628 6.08106C21.6238 5.50756 22.0038 4.78306 22.0038 3.97956L22.0418 4.64706C22.0653 5.08706 22.0968 5.71506 22.1283 6.46856C22.1818 7.75156 22.2353 9.40106 22.2498 11.1071C22.1858 11.9891 21.3353 13.0051 19.4718 13.8521C17.5988 14.7041 14.9588 15.2496 12.0038 15.2496C9.04881 15.2496 6.40881 14.7036 4.53581 13.8526C2.67231 13.0051 1.82181 11.9891 1.75781 11.1076C1.77281 9.40106 1.82581 7.75156 1.87931 6.46856C1.91375 5.64525 1.95475 4.82222 2.00231 3.99956M4.25381 10.9996C4.25381 10.7343 4.35917 10.48 4.54671 10.2925C4.73424 10.1049 4.9886 9.99956 5.25381 9.99956C5.51903 9.99956 5.77338 10.1049 5.96092 10.2925C6.14846 10.48 6.25381 10.7343 6.25381 10.9996C6.25381 11.2648 6.14846 11.5191 5.96092 11.7067C5.77338 11.8942 5.51903 11.9996 5.25381 11.9996C4.9886 11.9996 4.73424 11.8942 4.54671 11.7067C4.35917 11.5191 4.25381 11.2648 4.25381 10.9996ZM8.50381 12.8746C8.76903 12.8746 9.02338 12.7692 9.21092 12.5817C9.39846 12.3941 9.50381 12.1398 9.50381 11.8746C9.50381 11.6093 9.39846 11.355 9.21092 11.1675C9.02338 10.9799 8.76903 10.8746 8.50381 10.8746C8.2386 10.8746 7.98424 10.9799 7.79671 11.1675C7.60917 11.355 7.50381 11.6093 7.50381 11.8746C7.50381 12.1398 7.60917 12.3941 7.79671 12.5817C7.98424 12.7692 8.2386 12.8746 8.50381 12.8746Z" fill="white"/>
<path fill-rule="evenodd" clip-rule="evenodd" d="M1.87262 16.7916C1.81996 15.8256 1.78429 14.8588 1.76562 13.8916C2.36563 14.4091 3.10412 14.8531 3.90812 15.2186C6.01662 16.1771 8.87663 16.7501 11.9966 16.7501C15.1166 16.7501 17.9766 16.1771 20.0851 15.2186C20.8891 14.8531 21.6276 14.4086 22.2276 13.8916C22.2046 15.0556 22.1626 16.0351 22.1206 16.7916C22.0899 17.3455 22.0511 17.8989 22.0041 18.4516L22.0021 18.4786L21.9961 18.5391C21.9841 19.3266 21.6076 20.0171 21.0561 20.5816C20.4981 21.1516 19.7281 21.6306 18.8351 22.0166C17.0466 22.7901 14.6281 23.2501 11.9966 23.2501C9.36512 23.2501 6.94662 22.7901 5.15812 22.0171C4.26512 21.6306 3.49512 21.1521 2.93712 20.5816C2.38562 20.0176 2.00912 19.3266 1.99712 18.5396L1.98862 18.4521L1.95963 18.1061C1.92597 17.6683 1.89697 17.2301 1.87262 16.7916ZM5.24662 19.7501C5.51184 19.7501 5.7662 19.6447 5.95373 19.4572C6.14127 19.2697 6.24662 19.0153 6.24662 18.7501C6.24662 18.4849 6.14127 18.2305 5.95373 18.043C5.7662 17.8555 5.51184 17.7501 5.24662 17.7501C4.98141 17.7501 4.72705 17.8555 4.53952 18.043C4.35198 18.2305 4.24662 18.4849 4.24662 18.7501C4.24662 19.0153 4.35198 19.2697 4.53952 19.4572C4.72705 19.6447 4.98141 19.7501 5.24662 19.7501ZM8.49662 20.6251C8.76184 20.6251 9.0162 20.5197 9.20373 20.3322C9.39127 20.1447 9.49662 19.8903 9.49662 19.6251C9.49662 19.3599 9.39127 19.1055 9.20373 18.918C9.0162 18.7305 8.76184 18.6251 8.49662 18.6251C8.23141 18.6251 7.97705 18.7305 7.78952 18.918C7.60198 19.1055 7.49662 19.3599 7.49662 19.6251C7.49662 19.8903 7.60198 20.1447 7.78952 20.3322C7.97705 20.5197 8.23141 20.6251 8.49662 20.6251Z" fill="white"/>
</svg>
