<svg width="20" height="20" viewBox="0 0 20 20" fill="none" xmlns="http://www.w3.org/2000/svg">
<g clip-path="url(#clip0_342_2105)">
<path d="M2.66797 19.3346H17.3346M10.0013 14.0013V19.3346M0.667969 2.0013V12.668C0.667969 13.0216 0.808445 13.3607 1.05849 13.6108C1.30854 13.8608 1.64768 14.0013 2.0013 14.0013H18.0013C18.3549 14.0013 18.6941 13.8608 18.9441 13.6108C19.1942 13.3607 19.3346 13.0216 19.3346 12.668V2.0013C19.3346 1.64768 19.1942 1.30854 18.9441 1.05849C18.6941 0.808445 18.3549 0.667969 18.0013 0.667969H2.0013C1.64768 0.667969 1.30854 0.808445 1.05849 1.05849C0.808445 1.30854 0.667969 1.64768 0.667969 2.0013Z" stroke="#00AD99"/>
</g>
<defs>
<clipPath id="clip0_342_2105">
<rect width="20" height="20" fill="white"/>
</clipPath>
</defs>
</svg>
