<svg width="68" height="68" viewBox="0 0 68 68" fill="none" xmlns="http://www.w3.org/2000/svg">
<g clip-path="url(#clip0_876_17112)">
<path fill-rule="evenodd" clip-rule="evenodd" d="M20.3672 14.2139C20.3672 11.8866 22.2217 10 24.5093 10C29.2838 10 33.7389 11.3902 37.5048 13.7909C40.0959 12.7056 42.9344 12.1069 45.9103 12.1069C58.111 12.1069 68.0016 22.1689 68.0016 34.5809C68.0016 36.9082 66.1471 38.7948 63.8595 38.7948C61.5719 38.7948 59.7174 36.9082 59.7174 34.5809C59.7174 26.8234 53.5357 20.5347 45.9103 20.5347C45.4565 20.5347 45.0079 20.557 44.5654 20.6005C44.5947 20.6429 44.6239 20.6854 44.653 20.728C47.3001 24.6071 48.8933 29.2912 49.01 34.3358C49.0146 34.4169 49.0169 34.4987 49.0169 34.5809C49.0169 34.6299 49.0166 34.6788 49.0161 34.7277C49.0166 34.7957 49.0169 34.8639 49.0169 34.9321C49.0169 35.0907 49.0083 35.2473 48.9915 35.4013C48.5757 42.0978 43.1052 47.3981 36.4179 47.3981C29.4597 47.3981 23.819 41.6597 23.819 34.5809C23.819 28.6775 26.0564 23.3057 29.7156 19.2953C28.0811 18.7325 26.3302 18.4277 24.5093 18.4277C22.2217 18.4277 20.3672 16.5411 20.3672 14.2139ZM36.7361 24.0836C33.8937 26.6563 32.1032 30.4059 32.1032 34.5809C32.1032 37.0052 34.035 38.9704 36.4179 38.9704C38.7617 38.9704 40.669 37.0693 40.7311 34.7002C40.6851 31.2903 39.6267 28.1409 37.8478 25.5341C37.5033 25.0293 37.132 24.545 36.7361 24.0836Z" fill="#64E3D4"/>
<path fill-rule="evenodd" clip-rule="evenodd" d="M24.5076 18.4277C15.5477 18.4277 8.28425 25.817 8.28425 34.9321C8.28425 41.5956 12.1662 47.3456 17.7727 49.9526C19.8533 50.9201 20.769 53.4202 19.818 55.5369C18.867 57.6535 16.4094 58.5851 14.3288 57.6176C5.88258 53.6902 0 45.0144 0 34.9321C0 21.1625 10.9724 10 24.5076 10C32.859 10 40.233 14.2535 44.6513 20.728C45.9558 22.6398 45.49 25.2654 43.6108 26.5926C41.7316 27.9198 39.1507 27.4459 37.8461 25.5341C34.9096 21.231 30.03 18.4277 24.5076 18.4277Z" fill="#00C2AB"/>
</g>
<defs>
<clipPath id="clip0_876_17112">
<rect width="68" height="68" fill="white"/>
</clipPath>
</defs>
</svg>
